<?xml version="1.0" encoding="UTF-8" standalone="no"?>
<!-- Created with Inkscape (http://www.inkscape.org/) -->

<svg
   width="210mm"
   height="297mm"
   viewBox="0 0 210 297"
   version="1.1"
   id="svg1"
   inkscape:version="1.3.2 (091e20e, 2023-11-25, custom)"
   sodipodi:docname="KU100.svg"
   inkscape:export-filename="KU100.png"
   inkscape:export-xdpi="68.44632"
   inkscape:export-ydpi="68.44632"
   xmlns:inkscape="http://www.inkscape.org/namespaces/inkscape"
   xmlns:sodipodi="http://sodipodi.sourceforge.net/DTD/sodipodi-0.dtd"
   xmlns:xlink="http://www.w3.org/1999/xlink"
   xmlns="http://www.w3.org/2000/svg"
   xmlns:svg="http://www.w3.org/2000/svg">
  <sodipodi:namedview
     id="namedview1"
     pagecolor="#ffffff"
     bordercolor="#000000"
     borderopacity="0.25"
     inkscape:showpageshadow="2"
     inkscape:pageopacity="0.0"
     inkscape:pagecheckerboard="0"
     inkscape:deskcolor="#d1d1d1"
     inkscape:document-units="mm"
     showgrid="true"
     inkscape:zoom="0.79170475"
     inkscape:cx="356.19339"
     inkscape:cy="512.18589"
     inkscape:window-width="1409"
     inkscape:window-height="961"
     inkscape:window-x="1267"
     inkscape:window-y="1095"
     inkscape:window-maximized="0"
     inkscape:current-layer="layer1">
    <inkscape:grid
       id="grid1"
       units="mm"
       originx="0"
       originy="0"
       spacingx="0.99999998"
       spacingy="1"
       empcolor="#0099e5"
       empopacity="0.30196078"
       color="#0099e5"
       opacity="0.14901961"
       empspacing="5"
       dotted="false"
       gridanglex="30"
       gridanglez="30"
       visible="true" />
  </sodipodi:namedview>
  <defs
     id="defs1">
    <linearGradient
       id="swatch19"
       inkscape:swatch="solid">
      <stop
         style="stop-color:#22ac33;stop-opacity:1;"
         offset="0"
         id="stop19" />
    </linearGradient>
    <clipPath
       clipPathUnits="userSpaceOnUse"
       id="clipPath2">
      <g
         inkscape:label="Clip"
         id="use2" />
    </clipPath>
  </defs>
  <g
     inkscape:groupmode="layer"
     id="layer3"
     inkscape:label="Layer 3">
    <path
       style="opacity:1;fill:#808080;fill-opacity:1;stroke:#000000;stroke-width:5;stroke-dasharray:none;stroke-dashoffset:0;stroke-opacity:1"
       d="m 50.000001,112.5 c 0,-5 -15,-15.000007 -20,-10.00001 -5,5.00001 -5,30.00001 5,40.00001 10,10 15,-2.36477 15,-5 z"
       id="path4"
       sodipodi:nodetypes="zzzzz" />
    <use
       x="0"
       y="0"
       xlink:href="#path4"
       id="use4"
       transform="matrix(-1,0,0,1,200,0)" />
  </g>
  <g
     inkscape:groupmode="layer"
     id="layer2"
     inkscape:label="Layer 2">
    <path
       style="display:inline;fill:#808080;fill-opacity:1;stroke:#000000;stroke-width:5;stroke-dasharray:none;stroke-opacity:1"
       d="m 100,49.999999 c 10,0 50,4.999999 50,24.999999 V 140 c 0,15 -5,35 -10,44.99999 -5,10 -20,15 -40,15 -19.999998,0 -34.999999,-5 -39.999999,-15 -5,-9.99999 -10,-29.99999 -10,-44.99999 V 74.999998 c 0,-20 39.999996,-24.999999 49.999999,-24.999999 z"
       id="path1"
       sodipodi:nodetypes="zszzzzzsz" />
  </g>
  <g
     inkscape:groupmode="layer"
     id="layer4"
     inkscape:label="Layer 4">
    <path
       style="display:inline;fill:#808080;fill-opacity:1;stroke:#000000;stroke-width:5;stroke-dasharray:none;stroke-opacity:1;fill-rule:nonzero"
       d="m 60.000001,184.99999 c 0,10 -10e-7,30 5,35 5.000001,5 20.000001,10 34.999999,10 15,0 30,-5 35,-10 5,-5 5,-25 5,-35 0,0 -5,15 -40,15 -34.999999,0 -39.999999,-15 -39.999999,-15 z"
       id="path1-2"
       sodipodi:nodetypes="czzzczc" />
    <path
       sodipodi:type="star"
       style="display:none;opacity:1;fill:#ff0000;fill-opacity:1;stroke:none;stroke-width:5;stroke-dasharray:none;stroke-dashoffset:0;stroke-opacity:1"
       id="path6"
       inkscape:flatsided="true"
       sodipodi:sides="4"
       sodipodi:cx="100"
       sodipodi:cy="209.99998"
       sodipodi:r1="10.591706"
       sodipodi:r2="3.8850918"
       sodipodi:arg1="1.5707962"
       sodipodi:arg2="2.3561944"
       inkscape:rounded="0"
       inkscape:randomized="0"
       d="m 100,220.59169 -10.591706,-10.5917 10.591705,-10.59171 10.591711,10.5917 z"
       inkscape:transform-center-x="1.8163862e-06"
       inkscape:transform-center-y="0.74198335"
       transform="translate(4.9992489e-7,4.4083032)" />
  </g>
  <g
     inkscape:label="Layer 1"
     inkscape:groupmode="layer"
     id="layer1">
    <use
       x="0"
       y="0"
       xlink:href="#rect30"
       id="use30"
       transform="translate(57.802934)" />
    <rect
       style="opacity:1;fill:#444444;fill-opacity:1;fill-rule:nonzero;stroke:none;stroke-width:5.59016;stroke-dasharray:none;stroke-dashoffset:0;stroke-opacity:1"
       id="rect30"
       width="37.5"
       height="20.000004"
       x="52.5"
       y="104.99999" />
    <path
       style="display:inline;fill:none;stroke:#000000;stroke-width:5;stroke-dasharray:none;stroke-opacity:1"
       d="m 50,105 h 40.000001 v 44.99999 H 110 V 105 h 40 v 0"
       id="path2" />
  </g>
</svg>
